<svg width="16" height="16" viewBox="0 0 16 16" fill="none" xmlns="http://www.w3.org/2000/svg">
<circle cx="8" cy="8" r="8" fill="black"/>
<g clip-path="url(#clip0_730_752)">
<path d="M12.1273 8.54434C12.1495 8.36656 12.1662 8.18878 12.1662 7.99989C12.1662 7.811 12.1495 7.63323 12.1273 7.45545L13.2995 6.53878C13.4051 6.45545 13.4329 6.30545 13.3662 6.18323L12.2551 4.261C12.2051 4.17211 12.1107 4.12211 12.0107 4.12211C11.9773 4.12211 11.944 4.12767 11.9162 4.13878L10.5329 4.69434C10.244 4.47211 9.93288 4.28878 9.59399 4.14989L9.38288 2.67767C9.36621 2.54434 9.24955 2.44434 9.11066 2.44434H6.88843C6.74954 2.44434 6.63288 2.54434 6.61621 2.67767L6.4051 4.14989C6.06621 4.28878 5.7551 4.47767 5.46621 4.69434L4.08288 4.13878C4.04954 4.12767 4.01621 4.12211 3.98288 4.12211C3.88843 4.12211 3.79399 4.17211 3.74399 4.261L2.63288 6.18323C2.56066 6.30545 2.59399 6.45545 2.69954 6.53878L3.87177 7.45545C3.84954 7.63323 3.83288 7.81656 3.83288 7.99989C3.83288 8.18323 3.84954 8.36656 3.87177 8.54434L2.69954 9.461C2.59399 9.54434 2.56621 9.69434 2.63288 9.81656L3.74399 11.7388C3.79399 11.8277 3.88843 11.8777 3.98843 11.8777C4.02177 11.8777 4.0551 11.8721 4.08288 11.861L5.46621 11.3054C5.7551 11.5277 6.06621 11.711 6.4051 11.8499L6.61621 13.3221C6.63288 13.4554 6.74954 13.5554 6.88843 13.5554H9.11066C9.24955 13.5554 9.36621 13.4554 9.38288 13.3221L9.59399 11.8499C9.93288 11.711 10.244 11.5221 10.5329 11.3054L11.9162 11.861C11.9495 11.8721 11.9829 11.8777 12.0162 11.8777C12.1107 11.8777 12.2051 11.8277 12.2551 11.7388L13.3662 9.81656C13.4329 9.69434 13.4051 9.54434 13.2995 9.461L12.1273 8.54434ZM11.0273 7.59434C11.0495 7.76656 11.0551 7.88323 11.0551 7.99989C11.0551 8.11656 11.044 8.23878 11.0273 8.40545L10.9495 9.03323L11.444 9.42211L12.044 9.88878L11.6551 10.561L10.9495 10.2777L10.3718 10.0443L9.87177 10.4221C9.63288 10.5999 9.4051 10.7332 9.17732 10.8277L8.58843 11.0666L8.49954 11.6943L8.38843 12.4443H7.61066L7.5051 11.6943L7.41621 11.0666L6.82732 10.8277C6.58843 10.7277 6.36621 10.5999 6.14399 10.4332L5.63843 10.0443L5.04954 10.2832L4.34399 10.5666L3.9551 9.89434L4.5551 9.42767L5.04954 9.03878L4.97177 8.411C4.9551 8.23878 4.94399 8.111 4.94399 7.99989C4.94399 7.88878 4.9551 7.761 4.97177 7.59434L5.04954 6.96656L4.5551 6.57767L3.9551 6.111L4.34399 5.43878L5.04954 5.72211L5.62732 5.95545L6.12732 5.57767C6.36621 5.39989 6.59399 5.26656 6.82177 5.17211L7.41066 4.93323L7.49955 4.30545L7.61066 3.55545H8.38288L8.48843 4.30545L8.57732 4.93323L9.16621 5.17211C9.4051 5.27211 9.62732 5.39989 9.84955 5.56656L10.3551 5.95545L10.944 5.71656L11.6495 5.43323L12.0384 6.10545L11.444 6.57767L10.9495 6.96656L11.0273 7.59434ZM7.99955 5.77767C6.77177 5.77767 5.77732 6.77211 5.77732 7.99989C5.77732 9.22767 6.77177 10.2221 7.99955 10.2221C9.22732 10.2221 10.2218 9.22767 10.2218 7.99989C10.2218 6.77211 9.22732 5.77767 7.99955 5.77767ZM7.99955 9.111C7.38843 9.111 6.88843 8.611 6.88843 7.99989C6.88843 7.38878 7.38843 6.88878 7.99955 6.88878C8.61066 6.88878 9.11066 7.38878 9.11066 7.99989C9.11066 8.611 8.61066 9.111 7.99955 9.111Z" fill="white"/>
</g>
<defs>
<clipPath id="clip0_730_752">
<rect width="13.3333" height="13.3333" fill="white" transform="translate(1.33301 1.33325)"/>
</clipPath>
</defs>
</svg>
